<?xml version="1.0" standalone="no"?>
<!DOCTYPE svg PUBLIC "-//W3C//DTD SVG 20010904//EN"
 "http://www.w3.org/TR/2001/REC-SVG-20010904/DTD/svg10.dtd">
<svg version="1.0" xmlns="http://www.w3.org/2000/svg"
 width="2645.000000pt" height="869.000000pt" viewBox="0 0 2645.000000 869.000000"
 preserveAspectRatio="xMidYMid meet">

<g transform="translate(0.000000,869.000000) scale(0.100000,-0.100000)"
fill="#000000" stroke="none">
<path d="M1140 8264 c-302 -48 -459 -160 -537 -380 l-28 -79 0 -2370 0 -2370
28 -78 c85 -241 263 -360 537 -360 79 1 121 6 171 22 172 55 297 190 355 386
17 57 19 152 21 1638 3 1190 6 1577 15 1577 6 0 31 -9 54 -21 32 -15 54 -38
87 -87 72 -111 285 -448 916 -1452 633 -1007 664 -1051 765 -1100 53 -25 99
-25 155 1 101 45 131 90 870 1264 384 611 729 1159 767 1219 70 111 118 160
166 171 l27 7 3 -1568 3 -1569 22 -78 c81 -286 313 -443 602 -408 155 19 248
61 339 153 64 64 114 160 139 265 17 74 18 189 18 2388 -1 2132 -2 2316 -18
2384 -63 277 -254 414 -629 453 -204 21 -384 -14 -548 -105 -103 -58 -272
-227 -366 -367 -39 -58 -142 -226 -229 -375 -186 -317 -315 -529 -727 -1191
-167 -269 -321 -517 -342 -551 -87 -141 -147 -182 -220 -148 -50 24 -68 49
-273 380 -99 160 -271 436 -382 615 -172 276 -421 689 -674 1116 -212 358
-409 536 -672 604 -107 29 -288 34 -415 14z"/>
<path d="M10380 8269 c-1074 -87 -2008 -679 -2494 -1580 -131 -244 -236 -566
-283 -869 -22 -146 -25 -567 -5 -705 65 -433 200 -789 431 -1140 194 -295 482
-585 791 -797 652 -449 1500 -639 2310 -517 1125 169 2052 897 2417 1899 46
127 107 367 129 515 24 151 27 579 6 720 -47 308 -124 559 -257 830 -287 585
-801 1075 -1432 1363 -487 223 -1072 324 -1613 281z m600 -1013 c648 -110
1190 -502 1455 -1051 290 -601 205 -1302 -222 -1827 -78 -96 -265 -273 -362
-342 -255 -183 -539 -299 -870 -358 -183 -32 -501 -32 -686 1 -362 64 -679
205 -949 421 -39 32 -118 107 -176 167 -774 804 -621 2048 330 2676 130 86
331 184 470 231 114 37 309 81 430 96 112 13 468 5 580 -14z"/>
<path d="M14655 8270 c-221 -48 -393 -197 -435 -379 -19 -82 -8 -210 27 -311
43 -125 1900 -4665 1935 -4733 17 -31 51 -75 75 -98 105 -97 229 -122 598
-123 259 -1 430 13 520 41 92 29 177 104 224 196 26 51 1893 4624 1928 4722
37 104 43 257 13 344 -40 120 -133 220 -263 285 -134 66 -257 80 -391 46 -98
-25 -166 -62 -231 -125 -68 -66 -94 -109 -159 -262 -99 -235 -1588 -3778
-1598 -3803 -8 -20 -11 -22 -18 -10 -4 8 -366 868 -804 1910 -438 1042 -812
1932 -832 1977 -89 202 -255 319 -469 328 -44 2 -98 0 -120 -5z"/>
<path d="M20552 8250 c-201 -53 -350 -195 -419 -400 -17 -53 -18 -151 -21
-2420 -3 -2620 -7 -2456 62 -2595 60 -121 148 -210 261 -265 171 -84 360 -80
535 10 139 73 226 184 273 347 l22 78 3 2320 c3 2349 2 2443 -33 2558 -55 182
-208 330 -386 372 -87 20 -208 18 -297 -5z"/>
<path d="M22913 8259 c-80 -13 -154 -45 -230 -98 -79 -56 -139 -128 -183 -222
-63 -136 -60 26 -60 -2559 0 -2611 -5 -2410 67 -2560 27 -56 55 -94 112 -150
120 -119 239 -170 401 -170 148 0 273 53 380 160 75 76 120 148 158 252 l27
73 3 2378 c3 2651 8 2450 -69 2605 -108 220 -346 334 -606 291z"/>
<path d="M24813 2710 c-103 -24 -181 -115 -213 -247 -27 -115 22 -196 168
-284 102 -61 401 -271 402 -282 1 -16 -172 -133 -272 -183 -1048 -526 -2159
-767 -3331 -724 -681 25 -1253 123 -1817 310 -321 107 -541 199 -1015 427
-323 155 -370 174 -445 175 -82 1 -136 -19 -196 -74 -142 -130 -139 -289 6
-421 129 -116 730 -404 1207 -577 746 -272 1458 -396 2373 -416 1143 -25 2178
182 3160 633 200 92 581 253 599 253 7 0 9 -9 6 -22 -3 -13 -16 -96 -30 -186
-14 -89 -36 -213 -51 -275 -27 -119 -27 -165 3 -239 46 -114 249 -190 394
-146 50 14 114 69 139 117 48 95 111 381 131 599 39 408 -126 841 -445 1171
-189 195 -434 344 -635 387 -72 15 -91 16 -138 4z"/>
</g>
</svg>
